<svg xmlns="http://www.w3.org/2000/svg" viewBox="0 0 298.34 62.42"><defs><style>.a{fill:#fff;}</style></defs><title>macblog-logo</title><path class="a" d="M117,56.75c0,1-.37,1.55-1.49,1.55h-5.15c-1.12,0-1.49-.5-1.49-1.55V33.15c-.06.19-1.18,4-1.8,5.65l-4.72,11.55a2.11,2.11,0,0,1-2,1.55H95.92a2,2,0,0,1-2-1.55L88.65,37.87a27.13,27.13,0,0,1-1.42-4.6V56.75c0,1-.38,1.55-1.5,1.55h-4.9c-1.12,0-1.49-.5-1.49-1.55V17.62c0-1.05.37-1.55,1.49-1.55h4.9a1.28,1.28,0,0,1,1.37.87l9.5,21.67c.75,1.68,1.56,4.35,1.56,4.35s.8-2.42,1.61-4.28L109,16.82c.25-.56.68-.75,1.43-.75h5.15c1.12,0,1.49.5,1.49,1.55Z" transform="translate(-0.83 -8.79)"/><path class="a" d="M125,35.82c0-5.53,3.67-8.94,12.55-8.94,9.06,0,12.48,3.41,12.48,8.94V56.69c0,1.11-.43,1.61-1.49,1.61h-4.66c-1.12,0-1.36-.5-1.49-1.61l-.12-1.31a14.2,14.2,0,0,1-9.19,3.42c-6.09,0-9-3.67-9-7.76v-2.8c0-4.16,3.17-7.83,9.32-7.83h8.57v-4c0-2.24-1.06-3.48-4.66-3.48s-4.78,1-4.78,3.23v.44c0,1.11-.44,1.55-1.49,1.55h-4.6c-1.12,0-1.49-.44-1.49-1.55Zm17,13.85V46.13h-7c-2.42,0-3,1.18-3,2.79v1c0,1.86,1.24,2.42,3.11,2.42A12.17,12.17,0,0,0,142.06,49.67Z" transform="translate(-0.83 -8.79)"/><path class="a" d="M182,36v1.05c0,1.12-.44,1.49-1.49,1.49h-4.78c-1.12,0-1.56-.37-1.56-1.49v-.43c0-2.3-1.24-3.29-4.78-3.29s-4.78,1-4.78,3.29V49c0,2.29,1.24,3.35,4.78,3.35s4.78-1.06,4.78-3.35v-.94c0-1.11.44-1.55,1.56-1.55h4.78c1.05,0,1.49.44,1.49,1.55v1.56c0,5.59-3.73,9.19-12.79,9.19s-12.74-3.6-12.74-9.19V36c0-5.53,3.67-9.13,12.8-9.13S182,30.48,182,36Z" transform="translate(-0.83 -8.79)"/><path class="a" d="M189.81,58.3c-1.12,0-1.49-.5-1.49-1.61v-39c0-1.11.37-1.61,1.49-1.61h11.37c11.24,0,15,4.16,15,9.38v3.66a7.23,7.23,0,0,1-4.65,7c4.22,1.49,6.58,4.1,6.58,7.51v4.91c0,5.21-3.79,9.81-15,9.81Zm6.89-35.52v10.8h4.66c4,0,6.52-1.49,6.52-4.65V26.75c0-3.1-2.54-4-6.7-4Zm0,17.14V51.59h6.4c4.16,0,6.77-1.49,6.77-4.59V44.2c0-2.67-2.61-4.28-6.77-4.28Z" transform="translate(-0.83 -8.79)"/><path class="a" d="M232.66,56.69c0,1.11-.37,1.61-1.43,1.61h-5.15c-1.12,0-1.56-.5-1.56-1.61V16.51c0-1.12.44-1.62,1.56-1.62h5.15c1.06,0,1.43.5,1.43,1.62Z" transform="translate(-0.83 -8.79)"/><path class="a" d="M239.43,36c0-5.53,4.28-9.13,13.41-9.13s13.42,3.6,13.42,9.13v13.6c0,5.59-4.29,9.19-13.42,9.19s-13.41-3.6-13.41-9.19Zm18.69.68c0-2.3-1.8-3.35-5.28-3.35s-5.28,1-5.28,3.35V48.92c0,2.36,1.8,3.42,5.28,3.42s5.28-1.06,5.28-3.42Z" transform="translate(-0.83 -8.79)"/><path class="a" d="M272.34,49.73V35.94c0-5.52,2.86-9.06,9-9.06a15.06,15.06,0,0,1,9.93,3.6l.13-1.55c.12-1.12.37-1.56,1.49-1.56h4.78c1.05,0,1.49.44,1.49,1.56V61.65c0,5.53-4.16,9.13-13.29,9.13h-8.76c-1.12,0-1.55-.37-1.55-1.49v-3.6c0-1.12.43-1.61,1.55-1.61h8.76c3.48,0,5.15-1.06,5.15-3.36V55.51a15.85,15.85,0,0,1-9.68,3.29C275.2,58.8,272.34,55.26,272.34,49.73Zm8.14-1.3c0,1.67.49,3.29,3.41,3.29s5.84-1.87,7.14-2.86v-12c-1.3-1-4.09-2.85-7.14-2.85s-3.41,1.61-3.41,3.23Z" transform="translate(-0.83 -8.79)"/><path class="a" d="M50.77,46.24H44.53V33.76h6.24A12.49,12.49,0,1,0,38.28,21.27v6.24H25.8V21.27A12.49,12.49,0,1,0,13.32,33.76h6.24V46.24H13.32A12.49,12.49,0,1,0,25.8,58.73V52.49H38.28v6.24A12.49,12.49,0,1,0,50.77,46.24Zm-6.24-25a6.24,6.24,0,1,1,6.24,6.24H44.53Zm-25,37.46a6.25,6.25,0,1,1-6.24-6.24h6.24Zm0-31.22H13.32a6.24,6.24,0,1,1,6.24-6.24ZM38.28,46.24H25.8V33.76H38.28ZM50.77,65a6.24,6.24,0,0,1-6.24-6.24V52.49h6.24a6.24,6.24,0,1,1,0,12.48Z" transform="translate(-0.83 -8.79)"/></svg>